<svg version="1.1" xmlns="http://www.w3.org/2000/svg" xmlns:xlink="http://www.w3.org/1999/xlink" x="0px" y="0px" width="154.172px" height="154.172px" viewBox="0 0 154.172 154.172" enable-background="new 0 0 154.172 154.172" xml:space="preserve">
<rect x="56.207" y="52.903" fill="none" stroke="#FF4612" stroke-miterlimit="10" width="39.281" height="4.292"></rect>
<line fill="none" stroke="#FF4612" stroke-miterlimit="10" x1="44.68" y1="43.744" x2="44.68" y2="46.868"></line>
<line fill="none" stroke="#FF4612" stroke-miterlimit="10" x1="52.172" y1="73.601" x2="52.172" y2="78.618"></line>
<g>
<line fill="none" stroke="#FF4612" stroke-miterlimit="10" x1="75.664" y1="37.971" x2="75.664" y2="41.557"></line>
<line fill="none" stroke="#FF4612" stroke-miterlimit="10" x1="75.664" y1="37.962" x2="75.664" y2="34.376"></line>
</g>
<g>
<line fill="none" stroke="#FF4612" stroke-miterlimit="10" x1="75.664" y1="37.966" x2="79.229" y2="37.966"></line>
<line fill="none" stroke="#FF4612" stroke-miterlimit="10" x1="75.664" y1="37.966" x2="72.1" y2="37.966"></line>
</g>
<g>
<g>
<line fill="none" stroke="#FF4612" stroke-miterlimit="10" x1="34.226" y1="66.067" x2="34.226" y2="69.653"></line>
<line fill="none" stroke="#FF4612" stroke-miterlimit="10" x1="34.226" y1="66.057" x2="34.226" y2="62.471"></line>
</g>
<g>
<line fill="none" stroke="#FF4612" stroke-miterlimit="10" x1="34.226" y1="66.062" x2="37.79" y2="66.062"></line>
<line fill="none" stroke="#FF4612" stroke-miterlimit="10" x1="34.226" y1="66.062" x2="30.661" y2="66.062"></line>
</g>
</g>
<polyline fill="none" stroke="#FF4612" stroke-miterlimit="10" points="46.145,102.827 46.145,97.206 54.207,97.206 40.984,83.137 
	27.832,97.206 35.832,97.206 35.832,112.161 "></polyline>
<polyline fill="none" stroke="#FF4612" stroke-miterlimit="10" points="108.025,84.497 108.025,71.495 99.964,71.495 
	113.188,57.427 126.339,71.495 118.339,71.495 118.339,109.872 "></polyline>
<polyline fill="none" stroke="#FF4612" stroke-miterlimit="10" points="68.388,82.437 60.063,73.821 60.063,57.674 "></polyline>
<polyline fill="none" stroke="#FF4612" stroke-miterlimit="10" points="68.289,81.801 59.964,90.418 59.964,106.461 "></polyline>
<polyline fill="none" stroke="#FF4612" stroke-miterlimit="10" points="83.506,82.437 91.831,73.821 91.831,57.674 "></polyline>
<polyline fill="none" stroke="#FF4612" stroke-miterlimit="10" points="83.604,81.801 91.93,90.418 91.93,106.461 "></polyline>
<line fill="none" stroke="#FF4612" stroke-miterlimit="10" x1="97.672" y1="82.292" x2="97.672" y2="88.493"></line>
<line fill="none" stroke="#FF4612" stroke-miterlimit="10" x1="107.839" y1="94.784" x2="107.839" y2="98.944"></line>
<line fill="none" stroke="#FF4612" stroke-miterlimit="10" x1="75.749" y1="119.778" x2="34.024" y2="119.778"></line>
<line fill="none" stroke="#FF4612" stroke-miterlimit="10" x1="75.649" y1="119.778" x2="117.374" y2="119.778"></line>
<polyline fill="none" stroke="#FF4612" stroke-miterlimit="10" points="75.749,113.372 50.582,113.372 46.682,119.59 "></polyline>
<polyline fill="none" stroke="#FF4612" stroke-miterlimit="10" points="75.649,113.372 100.816,113.372 104.717,119.59 "></polyline>
<polyline fill="none" stroke="#FF4612" stroke-miterlimit="10" points="75.749,106.961 57.249,106.961 54.332,113.19 "></polyline>
<polyline fill="none" stroke="#FF4612" stroke-miterlimit="10" points="75.649,106.961 94.148,106.961 97.066,113.19 "></polyline>
<circle fill="none" stroke="#FF4612" stroke-miterlimit="10" cx="77.086" cy="77.086" r="76.586"></circle>
<circle fill="none" stroke="#FF4612" stroke-miterlimit="10" cx="75.848" cy="76.376" r="0.469"></circle>
<circle fill="none" stroke="#FF4612" stroke-miterlimit="10" cx="75.848" cy="82.115" r="0.469"></circle>
<g>
<circle fill="none" stroke="#FF4612" stroke-miterlimit="10" cx="72.106" cy="70.639" r="0.469"></circle>
<circle fill="none" stroke="#FF4612" stroke-miterlimit="10" cx="79.59" cy="70.639" r="0.469"></circle>
</g>
<g>
<circle fill="none" stroke="#FF4612" stroke-miterlimit="10" cx="68.364" cy="64.902" r="0.469"></circle>
<circle fill="none" stroke="#FF4612" stroke-miterlimit="10" cx="75.848" cy="64.902" r="0.469"></circle>
<circle fill="none" stroke="#FF4612" stroke-miterlimit="10" cx="83.331" cy="64.902" r="0.469"></circle>
</g>
<circle fill="none" stroke="#FF4612" stroke-miterlimit="10" cx="75.848" cy="87.854" r="0.469"></circle>
<g>
<circle fill="none" stroke="#FF4612" stroke-miterlimit="10" cx="79.59" cy="93.59" r="0.469"></circle>
<circle fill="none" stroke="#FF4612" stroke-miterlimit="10" cx="72.105" cy="93.59" r="0.469"></circle>
</g>
<g>
<circle fill="none" stroke="#FF4612" stroke-miterlimit="10" cx="83.331" cy="99.328" r="0.469"></circle>
<circle fill="none" stroke="#FF4612" stroke-miterlimit="10" cx="75.848" cy="99.327" r="0.469"></circle>
<circle fill="none" stroke="#FF4612" stroke-miterlimit="10" cx="68.364" cy="99.327" r="0.469"></circle>
</g>
</svg>