<svg version="1.1" xmlns="http://www.w3.org/2000/svg" xmlns:xlink="http://www.w3.org/1999/xlink" x="0px" y="0px" width="154.172px" height="154.173px" viewBox="0 0 154.172 154.173" enable-background="new 0 0 154.172 154.173" xml:space="preserve">
<circle fill="none" stroke="#FF4612" stroke-miterlimit="10" cx="77.086" cy="77.086" r="76.586"></circle>
<g>
<polyline fill="none" stroke="#FF4612" stroke-miterlimit="10" points="40.043,74.048 47.543,81.96 74.668,81.96 74.668,106.662 
		71.992,111.579 	"></polyline>
<path fill="none" stroke="#FF4612" stroke-miterlimit="10" d="M114.348,60.265l-7.5-7.912H79.504v-8.298
		c0,0,1.148-0.955,1.148-2.407c0-1.979-1.605-3.583-3.584-3.583"></path>
<polyline fill="none" stroke="#FF4612" stroke-miterlimit="10" points="114.129,59.721 106.629,67.633 79.504,67.633 
		79.504,106.662 82.18,111.579 	"></polyline>
<g>
<line fill="none" stroke="#FF4612" stroke-miterlimit="10" x1="77.082" y1="116.109" x2="104.742" y2="116.109"></line>
<line fill="none" stroke="#FF4612" stroke-miterlimit="10" x1="77.082" y1="116.109" x2="49.416" y2="116.109"></line>
</g>
<g>
<line fill="none" stroke="#FF4612" stroke-miterlimit="10" x1="60.576" y1="74.048" x2="68.199" y2="74.048"></line>
<line fill="none" stroke="#FF4612" stroke-miterlimit="10" x1="60.576" y1="74.048" x2="52.949" y2="74.048"></line>
</g>
<g>
<line fill="none" stroke="#FF4612" stroke-miterlimit="10" x1="93.701" y1="59.721" x2="101.324" y2="59.721"></line>
<line fill="none" stroke="#FF4612" stroke-miterlimit="10" x1="93.701" y1="59.721" x2="86.074" y2="59.721"></line>
</g>
<circle fill="none" stroke="#FF4612" stroke-miterlimit="10" cx="54.576" cy="102.774" r="0.469"></circle>
<circle fill="none" stroke="#FF4612" stroke-miterlimit="10" cx="61.723" cy="102.774" r="0.469"></circle>
<circle fill="none" stroke="#FF4612" stroke-miterlimit="10" cx="47.432" cy="102.774" r="0.469"></circle>
<circle fill="none" stroke="#FF4612" stroke-miterlimit="10" cx="99.908" cy="40.976" r="0.469"></circle>
<circle fill="none" stroke="#FF4612" stroke-miterlimit="10" cx="107.055" cy="40.976" r="0.469"></circle>
<circle fill="none" stroke="#FF4612" stroke-miterlimit="10" cx="92.762" cy="40.976" r="0.469"></circle>
<circle fill="none" stroke="#FF4612" stroke-miterlimit="10" cx="104.047" cy="104.892" r="0.469"></circle>
<circle fill="none" stroke="#FF4612" stroke-miterlimit="10" cx="96.9" cy="104.892" r="0.469"></circle>
<line fill="none" stroke="#FF4612" stroke-miterlimit="10" x1="51.199" y1="91.829" x2="58.699" y2="91.829"></line>
<line fill="none" stroke="#FF4612" stroke-miterlimit="10" x1="51.199" y1="96.829" x2="58.699" y2="96.829"></line>
<circle fill="none" stroke="#FF4612" stroke-miterlimit="10" cx="54.574" cy="48.079" r="4.875"></circle>
<g>
<g>
<line fill="none" stroke="#FF4612" stroke-miterlimit="10" x1="99.547" y1="87.661" x2="99.547" y2="91.247"></line>
<line fill="none" stroke="#FF4612" stroke-miterlimit="10" x1="99.547" y1="87.651" x2="99.547" y2="84.065"></line>
</g>
<g>
<line fill="none" stroke="#FF4612" stroke-miterlimit="10" x1="99.547" y1="87.655" x2="103.111" y2="87.655"></line>
<line fill="none" stroke="#FF4612" stroke-miterlimit="10" x1="99.547" y1="87.655" x2="95.982" y2="87.655"></line>
</g>
</g>
</g>
<path fill="none" stroke="#FF4612" stroke-miterlimit="10" d="M40.191,74.204l7.133-7.525h27.344V44.054
	c0,0-1.146-0.979-1.182-2.401c-0.045-1.75,1.449-3.589,3.592-3.589"></path>
</svg>