<svg version="1.1" xmlns="http://www.w3.org/2000/svg" xmlns:xlink="http://www.w3.org/1999/xlink" x="0px" y="0px" width="154.172px" height="154.173px" viewBox="0 0 154.172 154.173" enable-background="new 0 0 154.172 154.173" xml:space="preserve">
<circle fill="none" stroke="#FF4612" stroke-miterlimit="10" cx="77.086" cy="77.086" r="76.586"></circle>
<g>
<circle fill="none" stroke="#FF4612" stroke-miterlimit="10" cx="81.017" cy="125.092" r="0.469"></circle>
<circle fill="none" stroke="#FF4612" stroke-miterlimit="10" cx="88.163" cy="125.092" r="0.469"></circle>
<circle fill="none" stroke="#FF4612" stroke-miterlimit="10" cx="95.309" cy="125.092" r="0.469"></circle>
<circle fill="none" stroke="#FF4612" stroke-miterlimit="10" cx="73.871" cy="125.092" r="0.469"></circle>
<circle fill="none" stroke="#FF4612" stroke-miterlimit="10" cx="82.013" cy="29.161" r="0.469"></circle>
<circle fill="none" stroke="#FF4612" stroke-miterlimit="10" cx="74.867" cy="29.161" r="0.469"></circle>
<g>
<line fill="none" stroke="#FF4612" stroke-miterlimit="10" x1="114.248" y1="41.742" x2="114.248" y2="45.328"></line>
<line fill="none" stroke="#FF4612" stroke-miterlimit="10" x1="114.248" y1="41.732" x2="114.248" y2="38.146"></line>
</g>
<g>
<line fill="none" stroke="#FF4612" stroke-miterlimit="10" x1="114.248" y1="41.736" x2="117.813" y2="41.736"></line>
<line fill="none" stroke="#FF4612" stroke-miterlimit="10" x1="114.248" y1="41.736" x2="110.684" y2="41.736"></line>
</g>
<g>
<line fill="none" stroke="#FF4612" stroke-miterlimit="10" x1="102.063" y1="72.706" x2="109.499" y2="72.706"></line>
<line fill="none" stroke="#FF4612" stroke-miterlimit="10" x1="102.063" y1="72.706" x2="94.624" y2="72.706"></line>
</g>
<g>
<line fill="none" stroke="#FF4612" stroke-miterlimit="10" x1="102.063" y1="82.407" x2="109.499" y2="82.407"></line>
<line fill="none" stroke="#FF4612" stroke-miterlimit="10" x1="102.063" y1="82.407" x2="94.624" y2="82.407"></line>
</g>
<g>
<line fill="none" stroke="#FF4612" stroke-miterlimit="10" x1="102.063" y1="92.109" x2="109.499" y2="92.109"></line>
<line fill="none" stroke="#FF4612" stroke-miterlimit="10" x1="102.063" y1="92.109" x2="94.624" y2="92.109"></line>
</g>
<g>
<line fill="none" stroke="#FF4612" stroke-miterlimit="10" x1="102.063" y1="101.811" x2="105.624" y2="101.811"></line>
<line fill="none" stroke="#FF4612" stroke-miterlimit="10" x1="102.063" y1="101.811" x2="98.499" y2="101.811"></line>
</g>
<g>
<line fill="none" stroke="#FF4612" stroke-miterlimit="10" x1="40.346" y1="73.006" x2="40.346" y2="76.592"></line>
<line fill="none" stroke="#FF4612" stroke-miterlimit="10" x1="40.346" y1="72.997" x2="40.346" y2="69.411"></line>
</g>
<g>
<line fill="none" stroke="#FF4612" stroke-miterlimit="10" x1="40.346" y1="73" x2="43.91" y2="73"></line>
<line fill="none" stroke="#FF4612" stroke-miterlimit="10" x1="40.346" y1="73" x2="36.781" y2="73"></line>
</g>
<line fill="none" stroke="#FF4612" stroke-miterlimit="10" x1="44.582" y1="48.319" x2="48.582" y2="48.319"></line>
<line fill="none" stroke="#FF4612" stroke-miterlimit="10" x1="70.957" y1="50.528" x2="90.707" y2="50.528"></line>
<line fill="none" stroke="#FF4612" stroke-miterlimit="10" x1="70.957" y1="59.465" x2="75.957" y2="59.465"></line>
<line fill="none" stroke="#FF4612" stroke-miterlimit="10" x1="70.957" y1="68.403" x2="74.861" y2="68.403"></line>
<polyline fill="none" stroke="#FF4612" stroke-miterlimit="10" points="44.582,112.278 35.832,103.778 45.707,93.903 	"></polyline>
<line fill="none" stroke="#FF4612" stroke-miterlimit="10" x1="62.082" y1="113.528" x2="69.207" y2="113.528"></line>
<polyline fill="none" stroke="#FF4612" stroke-miterlimit="10" points="37.932,113.147 41.129,116.347 74.775,83.102 
		75.941,74.815 67.787,76.632 	"></polyline>
<polyline fill="none" stroke="#FF4612" stroke-miterlimit="10" points="37.932,113.147 34.861,110.075 67.709,76.825 
		74.499,83.028 	"></polyline>
<polyline fill="none" stroke="#FF4612" stroke-miterlimit="10" points="36.42,112.219 32.943,115.696 34.182,116.935 	"></polyline>
<polyline fill="none" stroke="#FF4612" stroke-miterlimit="10" points="38.715,114.515 35.238,117.991 33.999,116.752 	"></polyline>
<polyline fill="none" stroke="#FF4612" stroke-miterlimit="10" points="59.841,40.968 100.832,40.968 100.832,51.903 	"></polyline>
<line fill="none" stroke="#FF4612" stroke-miterlimit="10" x1="60.332" y1="40.968" x2="60.332" y2="84.153"></line>
<line fill="none" stroke="#FF4612" stroke-miterlimit="10" x1="61.684" y1="96.153" x2="73.471" y2="96.153"></line>
<polyline fill="none" stroke="#FF4612" stroke-miterlimit="10" points="111.216,115.07 121.583,104.736 121.583,59.465 
		81.422,59.465 	"></polyline>
<polyline fill="none" stroke="#FF4612" stroke-miterlimit="10" points="81.916,59.465 81.916,114.934 111.082,114.934 
		111.082,104.57 121.414,104.57 	"></polyline>
</g>
</svg>