<svg version="1.1" xmlns="http://www.w3.org/2000/svg" xmlns:xlink="http://www.w3.org/1999/xlink" x="0px" y="0px" width="154.172px" height="154.173px" viewBox="0 0 154.172 154.173" enable-background="new 0 0 154.172 154.173" xml:space="preserve">
<circle fill="none" stroke="#FF4612" stroke-miterlimit="10" cx="77.085" cy="77.086" r="76.586"></circle>
<circle fill="none" stroke="#FF4612" stroke-miterlimit="10" cx="77.085" cy="77.986" r="3"></circle>
<g>
<line fill="none" stroke="#FF4612" stroke-miterlimit="10" x1="74.333" y1="79.636" x2="66.334" y2="84.153"></line>
<line fill="none" stroke="#FF4612" stroke-miterlimit="10" x1="79.837" y1="79.636" x2="87.836" y2="84.153"></line>
</g>
<line fill="none" stroke="#FF4612" stroke-miterlimit="10" x1="77.085" y1="74.986" x2="77.085" y2="65.278"></line>
<line fill="none" stroke="#FF4612" stroke-miterlimit="10" x1="41.6" y1="57.439" x2="57.225" y2="66.228"></line>
<circle fill="none" stroke="#FF4612" stroke-miterlimit="10" cx="41.457" cy="57.278" r="0.469"></circle>
<g>
<circle fill="none" stroke="#FF4612" stroke-miterlimit="10" cx="51.605" cy="48.319" r="0.469"></circle>
<circle fill="none" stroke="#FF4612" stroke-miterlimit="10" cx="102.564" cy="48.319" r="0.469"></circle>
</g>
<g>
<circle fill="none" stroke="#FF4612" stroke-miterlimit="10" cx="38.571" cy="70.601" r="0.469"></circle>
<circle fill="none" stroke="#FF4612" stroke-miterlimit="10" cx="115.599" cy="70.601" r="0.469"></circle>
</g>
<line fill="none" stroke="#FF4612" stroke-miterlimit="10" x1="112.676" y1="57.435" x2="97.051" y2="66.224"></line>
<circle fill="none" stroke="#FF4612" stroke-miterlimit="10" cx="112.818" cy="57.278" r="0.469"></circle>
<circle fill="none" stroke="#FF4612" stroke-miterlimit="10" cx="77.085" cy="119.215" r="0.469"></circle>
<circle fill="none" stroke="#FF4612" stroke-miterlimit="10" cx="77.085" cy="93.021" r="0.469"></circle>
<g>
<circle fill="none" stroke="#FF4612" stroke-miterlimit="10" cx="64.569" cy="70.601" r="0.469"></circle>
<circle fill="none" stroke="#FF4612" stroke-miterlimit="10" cx="89.601" cy="70.601" r="0.469"></circle>
</g>
<g>
<circle fill="none" stroke="#FF4612" stroke-miterlimit="10" cx="64.569" cy="114.934" r="0.469"></circle>
<circle fill="none" stroke="#FF4612" stroke-miterlimit="10" cx="89.601" cy="114.934" r="0.469"></circle>
</g>
<line fill="none" stroke="#FF4612" stroke-miterlimit="10" x1="77.085" y1="119.215" x2="77.085" y2="101.215"></line>
<g>
<path fill="none" stroke="#FF4612" stroke-miterlimit="10" d="M80.896,49.219c0,2.104-1.706,3.811-3.811,3.811l0,0
		c-2.104,0-3.811-1.706-3.811-3.811v-4.441c0-2.104,1.706-3.811,3.811-3.811l0,0c2.104,0,3.811,1.706,3.811,3.811V49.219z"></path>
<path fill="none" stroke="#FF4612" stroke-miterlimit="10" d="M70.084,62.934v-4.177c0-3.069,3.135-5.557,7.001-5.557l0,0
		c3.866,0,7.001,2.487,7.001,5.557v4.135"></path>
<circle fill="none" stroke="#FF4612" stroke-miterlimit="10" cx="77.085" cy="48.866" r="15.928"></circle>
</g>
<g>
<g>
<path fill="none" stroke="#FF4612" stroke-miterlimit="10" d="M105.17,92.773c0,2.104-1.706,3.811-3.811,3.811l0,0
			c-2.104,0-3.811-1.706-3.811-3.811v-4.441c0-2.104,1.706-3.811,3.811-3.811l0,0c2.104,0,3.811,1.706,3.811,3.811V92.773z"></path>
<path fill="none" stroke="#FF4612" stroke-miterlimit="10" d="M94.358,106.488v-4.177c0-3.069,3.135-5.557,7.001-5.557l0,0
			c3.866,0,7.001,2.487,7.001,5.557v4.135"></path>
<circle fill="none" stroke="#FF4612" stroke-miterlimit="10" cx="101.359" cy="92.419" r="15.928"></circle>
</g>
<g>
<path fill="none" stroke="#FF4612" stroke-miterlimit="10" d="M56.621,92.773c0,2.104-1.706,3.811-3.811,3.811l0,0
			c-2.104,0-3.811-1.706-3.811-3.811v-4.441c0-2.104,1.706-3.811,3.811-3.811l0,0c2.104,0,3.811,1.706,3.811,3.811V92.773z"></path>
<path fill="none" stroke="#FF4612" stroke-miterlimit="10" d="M45.81,106.488v-4.177c0-3.069,3.135-5.557,7.001-5.557l0,0
			c3.866,0,7.001,2.487,7.001,5.557v4.135"></path>
<circle fill="none" stroke="#FF4612" stroke-miterlimit="10" cx="52.811" cy="92.419" r="15.928"></circle>
</g>
</g>
</svg>